name pl02_filtered_grf.mot
datacolumns 37
datarows 12
range 0.002500 0.008000
endheader
time	1_ground_force_vx	1_ground_force_vy	1_ground_force_vz	1_ground_force_px	1_ground_force_py	1_ground_force_pz	1_ground_torque_x	1_ground_torque_y	1_ground_torque_z	2_ground_force_vx	2_ground_force_vy	2_ground_force_vz	2_ground_force_px	2_ground_force_py	2_ground_force_pz	2_ground_torque_x	2_ground_torque_y	2_ground_torque_z	3_ground_force_vx	3_ground_force_vy	3_ground_force_vz	3_ground_force_px	3_ground_force_py	3_ground_force_pz	3_ground_torque_x	3_ground_torque_y	3_ground_torque_z	4_ground_force_vx	4_ground_force_vy	4_ground_force_vz	4_ground_force_px	4_ground_force_py	4_ground_force_pz	4_ground_torque_x	4_ground_torque_y	4_ground_torque_z
            0.002500	            0.000000	           -0.000000	           -0.000000	            0.149275	            0.000000	            0.265966	           -0.000000	           -0.000000	            0.000000	           -0.000000	            0.000000	            0.000000	           -0.133537	            0.000000	            0.279475	            0.000000	           -0.000000	            0.000000	          -10.959043	          311.058464	          225.836684	            0.374293	            1.308744	            1.914376	           -0.456763	           17.913054	          -51.169757	            1.098730	          455.781479	          279.521491	           -0.266545	            1.308997	            1.925605	            1.389155	          -16.344972	           60.245990
            0.003000	            0.000000	           -0.000000	           -0.000000	            0.149275	            0.000000	            0.265966	           -0.000000	           -0.000000	            0.000000	           -0.000000	           -0.000000	            0.000000	           -0.133537	            0.000000	            0.279475	            0.000000	           -0.000000	           -0.000000	          -11.093447	          311.146705	          226.465282	            0.374293	            1.308744	            1.914376	           -0.430795	           17.988986	          -51.219053	            0.927868	          455.839315	          280.013438	           -0.266545	            1.308997	            1.925605	            1.390828	          -16.399009	           60.278047
            0.003500	            0.000000	           -0.000000	           -0.000000	            0.149275	            0.000000	            0.265966	           -0.000000	           -0.000000	            0.000000	           -0.000000	           -0.000000	            0.000000	           -0.133537	            0.000000	            0.279475	           -0.000000	            0.000000	           -0.000000	          -11.228242	          311.236301	          227.100338	            0.374291	            1.308739	            1.914401	           -0.404671	           18.066236	          -51.269137	            0.760588	          455.900979	          280.512625	           -0.266544	            1.308996	            1.925615	            1.392491	          -16.453941	           60.310382
            0.004000	            0.000000	           -0.000000	           -0.000000	            0.149275	            0.000000	            0.265966	           -0.000000	           -0.000000	            0.000000	           -0.000000	           -0.000000	            0.000000	           -0.133537	            0.000000	            0.279475	           -0.000000	            0.000000	           -0.000000	          -11.362904	          311.326998	          227.740378	            0.374289	            1.308735	            1.914425	           -0.378426	           18.144668	          -51.319926	            0.597597	          455.966066	          281.018062	           -0.266544	            1.308995	            1.925625	            1.394138	          -16.509701	           60.342920
            0.004500	            0.000000	           -0.000000	           -0.000000	            0.149275	            0.000000	            0.265966	           -0.000000	           -0.000000	            0.000000	           -0.000000	           -0.000000	           -0.000000	           -0.133537	            0.000000	            0.279475	           -0.000000	            0.000000	           -0.000000	          -11.496914	          311.418550	          228.383959	            0.374287	            1.308730	            1.914450	           -0.352095	           18.224150	          -51.371339	            0.439568	          456.034144	          281.528777	           -0.266543	            1.308994	            1.925635	            1.395763	          -16.566220	           60.375589
            0.005000	            0.000000	           -0.000000	           -0.000000	            0.149275	            0.000000	            0.265966	           -0.000000	           -0.000000	            0.000000	           -0.000000	           -0.000000	           -0.000000	           -0.133537	            0.000000	            0.279475	           -0.000000	            0.000000	           -0.000000	          -11.629761	          311.510713	          229.029678	            0.374285	            1.308725	            1.914475	           -0.325710	           18.304549	          -51.423296	            0.287126	          456.104750	          282.043825	           -0.266543	            1.308993	            1.925645	            1.397360	          -16.623434	           60.408315
            0.005500	            0.000000	           -0.000000	           -0.000000	            0.149275	            0.000000	            0.265966	           -0.000000	           -0.000000	            0.000000	           -0.000000	           -0.000000	           -0.000000	           -0.133537	            0.000000	            0.279475	           -0.000000	            0.000000	           -0.000000	          -11.759453	          311.601799	          229.678242	            0.374283	            1.308721	            1.914498	           -0.299647	           18.386059	          -51.475602	            0.141622	          456.177841	          282.561583	           -0.266542	            1.308992	            1.925655	            1.399095	          -16.681185	           60.441053
            0.006000	            0.000000	           -0.000000	           -0.000000	            0.149275	            0.000000	            0.265966	           -0.000000	           -0.000000	            0.000000	           -0.000000	           -0.000000	           -0.000000	           -0.133537	            0.000000	            0.279475	           -0.000000	            0.000000	           -0.000000	          -11.886963	          311.693034	          230.326316	            0.374282	            1.308717	            1.914522	           -0.273601	           18.468227	          -51.528298	            0.002806	          456.252472	          283.081893	           -0.266541	            1.308991	            1.925665	            1.400792	          -16.739509	           60.473711
            0.006500	            0.000000	           -0.000000	           -0.000000	            0.149275	            0.000000	            0.265966	           -0.000000	           -0.000000	            0.000000	           -0.000000	           -0.000000	           -0.000000	           -0.133537	            0.000000	            0.279475	           -0.000000	            0.000000	           -0.000000	          -12.011838	          311.784209	          230.972688	            0.374280	            1.308713	            1.914546	           -0.247600	           18.550928	          -51.581314	           -0.128857	          456.328120	          283.603929	           -0.266541	            1.308990	            1.925676	            1.402447	          -16.798348	           60.506226
            0.007000	            0.000000	           -0.000000	           -0.000000	            0.149275	            0.000000	            0.265966	           -0.000000	           -0.000000	            0.000000	           -0.000000	           -0.000000	           -0.000000	           -0.133537	            0.000000	            0.279475	           -0.000000	            0.000000	           -0.000000	          -12.133652	          311.875131	          231.616221	            0.374278	            1.308709	            1.914570	           -0.221670	           18.634040	          -51.634582	           -0.252956	          456.404250	          284.126919	           -0.266540	            1.308990	            1.925686	            1.404060	          -16.857650	           60.538533
            0.007500	            0.000000	           -0.000000	           -0.000000	            0.149275	            0.000000	            0.265966	           -0.000000	           -0.000000	            0.000000	           -0.000000	           -0.000000	           -0.000000	           -0.133537	            0.000000	            0.279475	           -0.000000	            0.000000	           -0.000000	          -12.252012	          311.965624	          232.255863	            0.374276	            1.308704	            1.914594	           -0.195833	           18.717445	          -51.688037	           -0.369145	          456.480317	          284.650140	           -0.266540	            1.308989	            1.925696	            1.405626	          -16.917364	           60.570575
            0.008000	            0.000000	           -0.000000	           -0.000000	            0.149275	            0.000000	            0.265966	           -0.000000	           -0.000000	            0.000000	           -0.000000	           -0.000000	           -0.000000	           -0.133537	            0.000000	            0.279475	           -0.000000	            0.000000	           -0.000000	          -12.364598	          312.052355	          232.895012	            0.374274	            1.308701	            1.914616	           -0.170565	           18.801738	          -51.741361	           -0.475352	          456.556772	          285.171326	           -0.266539	            1.308988	            1.925706	            1.407537	          -16.977233	           60.602345
